<?xml version='1.0' encoding='utf-8'?>
<!-- Generator: Adobe Illustrator 27.3.1, SVG Export Plug-In . SVG Version: 6.00 Build 0)  -->
<svg version="1.1" xmlns:xlink="http://www.w3.org/1999/xlink" x="0px" y="0px" id="_Слой_1" xml:space="preserve" viewBox="0 0 202.9 64" style="enable-background:new 0 0 202.9 64;" xmlns="http://www.w3.org/2000/svg">
 <style type="text/css">&#xd;
	.st0{fill:#E6E9EC;}&#xd;
	.st1{fill:none;stroke:#D9DFE3;}&#xd;
	.st2{fill:#1D2228;}&#xd;
</style>
 <rect y="0" height="64" class="st0" width="202.9"/>
 <line x2="0.7" y2="64" class="st1" x1="202.7" y1="64"/>
 <g>
  <path d="M-70.5,132.5v-11.4h7.3v1.6h-5.6v9.9L-70.5,132.5L-70.5,132.5z" class="st2"/>
  <path d="M-59.3,132.7c-0.9,0-1.6-0.2-2.2-0.6c-0.6-0.4-1.1-0.9-1.5-1.6c-0.3-0.7-0.5-1.5-0.5-2.4&#xd;&#xa;&#x9;&#x9;c0-0.9,0.2-1.7,0.5-2.4c0.3-0.7,0.8-1.2,1.5-1.6c0.6-0.4,1.4-0.6,2.2-0.6c0.9,0,1.6,0.2,2.2,0.6c0.6,0.4,1.1,0.9,1.5,1.6&#xd;&#xa;&#x9;&#x9;c0.3,0.7,0.5,1.5,0.5,2.3c0,0.9-0.2,1.7-0.5,2.4c-0.3,0.7-0.8,1.2-1.5,1.6C-57.7,132.5-58.4,132.7-59.3,132.7z M-59.3,131.2&#xd;&#xa;&#x9;&#x9;c0.8,0,1.4-0.3,1.8-0.8c0.4-0.6,0.6-1.3,0.6-2.1c0-0.9-0.2-1.6-0.6-2.1c-0.4-0.5-1-0.8-1.8-0.8c-0.6,0-1,0.1-1.4,0.4&#xd;&#xa;&#x9;&#x9;c-0.4,0.3-0.6,0.6-0.8,1s-0.3,1-0.3,1.5c0,0.9,0.2,1.6,0.6,2.2C-60.7,130.9-60.1,131.2-59.3,131.2z" class="st2"/>
  <path d="M-49.5,132.7c-0.9,0-1.6-0.2-2.2-0.6c-0.6-0.4-1.1-0.9-1.4-1.6c-0.3-0.7-0.5-1.5-0.5-2.3&#xd;&#xa;&#x9;&#x9;c0-0.9,0.2-1.7,0.5-2.3c0.3-0.7,0.8-1.2,1.4-1.6c0.6-0.4,1.4-0.6,2.2-0.6c0.9,0,1.7,0.2,2.4,0.7s1.1,1.1,1.3,1.9l-1.6,0.5&#xd;&#xa;&#x9;&#x9;c-0.2-0.5-0.4-0.9-0.8-1.1c-0.4-0.3-0.8-0.4-1.3-0.4s-1,0.1-1.3,0.4c-0.3,0.3-0.6,0.6-0.8,1.1c-0.2,0.4-0.3,1-0.3,1.5&#xd;&#xa;&#x9;&#x9;c0,0.9,0.2,1.6,0.6,2.1c0.4,0.5,1,0.8,1.8,0.8c0.5,0,1-0.1,1.3-0.4c0.3-0.2,0.6-0.6,0.8-1.1l1.7,0.4c-0.3,0.8-0.7,1.5-1.4,1.9&#xd;&#xa;&#x9;&#x9;C-47.8,132.5-48.6,132.7-49.5,132.7z" class="st2"/>
  <path d="M-41.8,132.5v-7.1h-2.9v-1.5h7.5v1.5h-2.9v7.1H-41.8z" class="st2"/>
  <path d="M-28.4,123.9v8.6h-1.5v-6l-4.3,6h-1.3v-8.6h1.6v5.9l4.3-5.8h1.2V123.9z" class="st2"/>
  <path d="M-26,132.5v-8.6h1.7v3.5h4.2v-3.5h1.7v8.6h-1.7V129h-4.2v3.5C-24.3,132.5-26,132.5-26,132.5z" class="st2"/>
  <path d="M-13.6,132.7c-0.6,0-1.2-0.1-1.6-0.4c-0.4-0.2-0.8-0.5-1-0.9c-0.2-0.4-0.3-0.8-0.3-1.3c0-0.4,0.1-0.8,0.2-1.1&#xd;&#xa;&#x9;&#x9;c0.2-0.3,0.4-0.6,0.7-0.8c0.3-0.2,0.7-0.4,1.1-0.6c0.4-0.1,0.8-0.2,1.3-0.3s1-0.2,1.5-0.2c0.5-0.1,1.1-0.1,1.6-0.2l-0.6,0.3&#xd;&#xa;&#x9;&#x9;c0-0.7-0.1-1.2-0.4-1.5c-0.3-0.3-0.8-0.5-1.5-0.5c-0.4,0-0.9,0.1-1.2,0.3c-0.4,0.2-0.6,0.6-0.8,1l-1.5-0.5c0.2-0.7,0.6-1.3,1.2-1.8&#xd;&#xa;&#x9;&#x9;c0.6-0.4,1.4-0.6,2.4-0.6c0.8,0,1.4,0.1,2,0.4c0.6,0.3,1,0.7,1.2,1.2c0.1,0.3,0.2,0.6,0.3,0.9c0,0.3,0,0.6,0,1v5.3h-1.5v-2l0.3,0.3&#xd;&#xa;&#x9;&#x9;c-0.4,0.7-0.8,1.1-1.4,1.5S-12.8,132.7-13.6,132.7z M-13.3,131.4c0.5,0,0.9-0.1,1.2-0.2c0.3-0.2,0.6-0.4,0.8-0.6s0.3-0.5,0.4-0.8&#xd;&#xa;&#x9;&#x9;c0.1-0.3,0.1-0.5,0.2-0.9c0-0.3,0-0.6,0-0.8l0.5,0.2c-0.5,0.1-1,0.2-1.4,0.2c-0.4,0.1-0.8,0.1-1.2,0.2c-0.3,0.1-0.7,0.1-0.9,0.2&#xd;&#xa;&#x9;&#x9;c-0.2,0.1-0.4,0.2-0.6,0.3c-0.2,0.1-0.3,0.2-0.4,0.4c-0.1,0.2-0.2,0.4-0.2,0.6s0.1,0.4,0.2,0.6s0.3,0.3,0.5,0.4&#xd;&#xa;&#x9;&#x9;C-14,131.3-13.7,131.4-13.3,131.4z" class="st2"/>
  <path d="M-7.3,132.5l2.2-3.4h1.8l-2.1,3.4H-7.3z M-1.6,132.5v-3h-1.7c-0.2,0-0.4,0-0.7,0c-0.3,0-0.5,0-0.8-0.1&#xd;&#xa;&#x9;&#x9;c-0.6-0.1-1.2-0.4-1.6-0.8c-0.4-0.4-0.6-1.1-0.6-1.8c0-0.7,0.2-1.4,0.6-1.8c0.4-0.5,0.9-0.8,1.5-0.9c0.3-0.1,0.5-0.1,0.8-0.1&#xd;&#xa;&#x9;&#x9;s0.5,0,0.7,0H0v8.6h-1.6V132.5z M-3.5,128.2h1.8v-2.9h-1.8c-0.1,0-0.3,0-0.4,0c-0.2,0-0.3,0-0.5,0.1c-0.2,0-0.3,0.1-0.5,0.3&#xd;&#xa;&#x9;&#x9;c-0.2,0.1-0.3,0.3-0.4,0.5c-0.1,0.2-0.1,0.4-0.1,0.6c0,0.4,0.1,0.7,0.3,0.9c0.2,0.2,0.5,0.4,0.7,0.5c0.2,0,0.3,0.1,0.5,0.1&#xd;&#xa;&#x9;&#x9;C-3.7,128.2-3.6,128.2-3.5,128.2z" class="st2"/>
 </g>
 <g>
  <path d="M32.4,168.9v-11.4h7.3v1.6h-5.6v9.9h-1.7V168.9z" class="st2"/>
  <path d="M43.6,169.2c-0.9,0-1.6-0.2-2.2-0.6c-0.6-0.4-1.1-0.9-1.5-1.6c-0.3-0.7-0.5-1.5-0.5-2.4c0-0.9,0.2-1.7,0.5-2.4&#xd;&#xa;&#x9;&#x9;s0.8-1.2,1.5-1.6c0.6-0.4,1.4-0.6,2.2-0.6c0.9,0,1.6,0.2,2.2,0.6c0.6,0.4,1.1,0.9,1.5,1.6c0.3,0.7,0.5,1.5,0.5,2.3&#xd;&#xa;&#x9;&#x9;c0,0.9-0.2,1.7-0.5,2.4c-0.3,0.7-0.8,1.2-1.5,1.6C45.2,169,44.5,169.2,43.6,169.2z M43.6,167.6c0.8,0,1.4-0.3,1.8-0.8&#xd;&#xa;&#x9;&#x9;c0.4-0.6,0.6-1.3,0.6-2.1c0-0.9-0.2-1.6-0.6-2.1c-0.4-0.5-1-0.8-1.8-0.8c-0.6,0-1,0.1-1.4,0.4s-0.6,0.6-0.8,1&#xd;&#xa;&#x9;&#x9;c-0.2,0.4-0.3,1-0.3,1.5c0,0.9,0.2,1.6,0.6,2.2C42.2,167.3,42.8,167.6,43.6,167.6z" class="st2"/>
  <path d="M53.4,169.2c-0.9,0-1.6-0.2-2.2-0.6c-0.6-0.4-1.1-0.9-1.4-1.6c-0.3-0.7-0.5-1.5-0.5-2.3c0-0.9,0.2-1.7,0.5-2.3&#xd;&#xa;&#x9;&#x9;c0.3-0.7,0.8-1.2,1.4-1.6c0.6-0.4,1.4-0.6,2.2-0.6c0.9,0,1.7,0.2,2.4,0.7s1.1,1.1,1.3,1.9l-1.6,0.4c-0.2-0.5-0.4-0.9-0.8-1.1&#xd;&#xa;&#x9;&#x9;c-0.4-0.3-0.8-0.4-1.3-0.4s-1,0.1-1.3,0.4c-0.3,0.3-0.6,0.6-0.8,1.1c-0.2,0.4-0.3,1-0.3,1.5c0,0.9,0.2,1.6,0.6,2.1&#xd;&#xa;&#x9;&#x9;c0.4,0.5,1,0.8,1.8,0.8c0.5,0,1-0.1,1.3-0.4c0.3-0.2,0.6-0.6,0.8-1.1l1.7,0.4c-0.3,0.8-0.7,1.5-1.4,1.9&#xd;&#xa;&#x9;&#x9;C55.1,169,54.3,169.2,53.4,169.2z" class="st2"/>
  <path d="M61.1,168.9v-7.1h-2.9v-1.5h7.5v1.5h-2.9v7.1H61.1z" class="st2"/>
  <path d="M74.5,160.4v8.6H73v-6l-4.3,6h-1.3v-8.6H69v5.8l4.3-5.8H74.5z" class="st2"/>
  <path d="M76.9,168.9v-8.6h1.7v3.5h4.2v-3.5h1.7v8.6h-1.7v-3.5h-4.2v3.5C78.6,168.9,76.9,168.9,76.9,168.9z" class="st2"/>
  <path d="M89.3,169.2c-0.6,0-1.2-0.1-1.6-0.4c-0.4-0.2-0.8-0.5-1-0.9c-0.2-0.4-0.3-0.8-0.3-1.3c0-0.4,0.1-0.8,0.2-1.1&#xd;&#xa;&#x9;&#x9;c0.2-0.3,0.4-0.6,0.7-0.8c0.3-0.2,0.7-0.4,1.1-0.6c0.4-0.1,0.8-0.2,1.3-0.3c0.5-0.1,1-0.2,1.5-0.2c0.5-0.1,1.1-0.1,1.6-0.2&#xd;&#xa;&#x9;&#x9;l-0.6,0.3c0-0.7-0.1-1.2-0.4-1.5s-0.8-0.5-1.5-0.5c-0.4,0-0.9,0.1-1.2,0.3c-0.4,0.2-0.6,0.6-0.8,1l-1.5-0.5&#xd;&#xa;&#x9;&#x9;c0.2-0.7,0.6-1.3,1.2-1.8c0.6-0.4,1.4-0.6,2.4-0.6c0.8,0,1.4,0.1,2,0.4c0.6,0.3,1,0.7,1.2,1.2c0.1,0.3,0.2,0.6,0.3,0.9&#xd;&#xa;&#x9;&#x9;c0,0.3,0,0.6,0,1v5.3h-1.5v-2l0.3,0.3c-0.4,0.7-0.8,1.1-1.4,1.5C90.7,169,90.1,169.2,89.3,169.2z M89.6,167.8&#xd;&#xa;&#x9;&#x9;c0.5,0,0.9-0.1,1.2-0.2c0.3-0.2,0.6-0.4,0.8-0.6c0.2-0.3,0.3-0.5,0.4-0.8s0.1-0.5,0.2-0.9c0-0.3,0-0.6,0-0.8l0.5,0.2&#xd;&#xa;&#x9;&#x9;c-0.5,0.1-1,0.2-1.4,0.2c-0.4,0.1-0.8,0.1-1.2,0.2c-0.3,0.1-0.7,0.1-0.9,0.2c-0.2,0.1-0.4,0.2-0.6,0.3c-0.2,0.1-0.3,0.2-0.4,0.4&#xd;&#xa;&#x9;&#x9;s-0.2,0.4-0.2,0.6c0,0.2,0.1,0.4,0.2,0.6s0.3,0.3,0.5,0.4C88.9,167.8,89.2,167.8,89.6,167.8z" class="st2"/>
  <path d="M95.6,168.9l2.2-3.4h1.8l-2.1,3.4H95.6z M101.3,168.9v-3h-1.7c-0.2,0-0.4,0-0.7,0c-0.3,0-0.5,0-0.8-0.1&#xd;&#xa;&#x9;&#x9;c-0.6-0.1-1.2-0.4-1.6-0.8c-0.4-0.4-0.6-1.1-0.6-1.8s0.2-1.4,0.6-1.8c0.4-0.5,0.9-0.8,1.5-0.9c0.3-0.1,0.5-0.1,0.8-0.1s0.5,0,0.7,0&#xd;&#xa;&#x9;&#x9;h3.4v8.6h-1.6V168.9z M99.4,164.6h1.8v-2.9h-1.8c-0.1,0-0.3,0-0.4,0c-0.2,0-0.3,0-0.5,0.1c-0.2,0-0.3,0.1-0.5,0.3&#xd;&#xa;&#x9;&#x9;c-0.2,0.1-0.3,0.3-0.4,0.5c-0.1,0.2-0.1,0.4-0.1,0.6c0,0.4,0.1,0.7,0.3,0.9c0.2,0.2,0.5,0.4,0.7,0.5c0.2,0,0.3,0.1,0.5,0.1&#xd;&#xa;&#x9;&#x9;C99.2,164.6,99.3,164.6,99.4,164.6z" class="st2"/>
 </g>
 <g>
  <path d="M32.4,221.7v-11.6h1.7v5.4l4.8-5.4H41l-5.1,5.7l5.5,5.9h-2.2l-5.2-5.5v5.5H32.4z" class="st2"/>
  <path d="M45.7,221.9c-0.9,0-1.6-0.2-2.3-0.6c-0.6-0.4-1.1-0.9-1.5-1.6c-0.3-0.7-0.5-1.5-0.5-2.4c0-0.9,0.2-1.7,0.5-2.4&#xd;&#xa;&#x9;&#x9;c0.4-0.7,0.8-1.2,1.5-1.6c0.6-0.4,1.4-0.6,2.2-0.6c0.9,0,1.6,0.2,2.3,0.6c0.6,0.4,1.1,0.9,1.5,1.6c0.3,0.7,0.5,1.5,0.5,2.4&#xd;&#xa;&#x9;&#x9;c0,0.9-0.2,1.7-0.5,2.4c-0.4,0.7-0.8,1.2-1.5,1.6C47.3,221.7,46.5,221.9,45.7,221.9z M45.7,220.3c0.8,0,1.5-0.3,1.9-0.8&#xd;&#xa;&#x9;&#x9;c0.4-0.6,0.6-1.3,0.6-2.2c0-0.9-0.2-1.6-0.6-2.2c-0.4-0.5-1-0.8-1.9-0.8c-0.6,0-1,0.1-1.4,0.4c-0.4,0.3-0.6,0.6-0.8,1.1&#xd;&#xa;&#x9;&#x9;c-0.2,0.4-0.3,1-0.3,1.6c0,0.9,0.2,1.6,0.6,2.2C44.2,220.1,44.9,220.3,45.7,220.3z" class="st2"/>
  <path d="M51.7,225.5V213h1.5v6.2h0.2v6.3H51.7z M55.8,221.9c-0.8,0-1.5-0.2-2.1-0.6c-0.6-0.4-1-1-1.3-1.6&#xd;&#xa;&#x9;&#x9;c-0.3-0.7-0.4-1.5-0.4-2.3c0-0.9,0.1-1.6,0.4-2.3c0.3-0.7,0.7-1.2,1.3-1.6c0.6-0.4,1.3-0.6,2.1-0.6c0.8,0,1.5,0.2,2.1,0.6&#xd;&#xa;&#x9;&#x9;c0.6,0.4,1,0.9,1.4,1.6c0.3,0.7,0.5,1.5,0.5,2.3c0,0.9-0.2,1.6-0.5,2.3c-0.3,0.7-0.8,1.2-1.4,1.6C57.3,221.7,56.6,221.9,55.8,221.9&#xd;&#xa;&#x9;&#x9;z M55.5,220.4c0.5,0,1-0.1,1.3-0.4c0.4-0.3,0.6-0.6,0.8-1.1c0.2-0.5,0.3-1,0.3-1.6c0-0.6-0.1-1.1-0.3-1.5c-0.2-0.5-0.4-0.8-0.8-1.1&#xd;&#xa;&#x9;&#x9;c-0.4-0.3-0.8-0.4-1.4-0.4c-0.5,0-1,0.1-1.3,0.4c-0.3,0.3-0.6,0.6-0.8,1.1c-0.2,0.5-0.2,1-0.2,1.6c0,0.6,0.1,1.1,0.2,1.6&#xd;&#xa;&#x9;&#x9;c0.2,0.5,0.4,0.8,0.8,1.1S55,220.4,55.5,220.4z" class="st2"/>
  <path d="M68.8,213v8.7h-1.6v-6l-4.3,6h-1.4V213h1.6v5.9l4.4-5.9H68.8z" class="st2"/>
  <path d="M70.4,223.6v-3.3c0.5,0,0.8-0.2,1-0.5c0.2-0.3,0.4-0.9,0.5-1.6c0.1-0.5,0.1-1,0.2-1.5c0.1-0.5,0.1-1.1,0.1-1.7&#xd;&#xa;&#x9;&#x9;c0-0.6,0.1-1.3,0.1-2h6.2v7.3h0.9v3.3h-1.6v-1.9H72v1.9H70.4z M72.8,220.3h4.1v-6h-3c0,0.4,0,0.7-0.1,1.1c0,0.4-0.1,0.7-0.1,1.1&#xd;&#xa;&#x9;&#x9;c0,0.4-0.1,0.7-0.1,1.1c0,0.3-0.1,0.6-0.1,0.9c-0.1,0.4-0.1,0.8-0.2,1.1S73,220.1,72.8,220.3z" class="st2"/>
  <path d="M84.8,221.9c-0.9,0-1.6-0.2-2.3-0.6c-0.6-0.4-1.1-0.9-1.5-1.6c-0.3-0.7-0.5-1.5-0.5-2.4c0-0.9,0.2-1.7,0.5-2.4&#xd;&#xa;&#x9;&#x9;c0.4-0.7,0.8-1.2,1.5-1.6c0.6-0.4,1.4-0.6,2.2-0.6c0.9,0,1.6,0.2,2.3,0.6c0.6,0.4,1.1,0.9,1.5,1.6c0.3,0.7,0.5,1.5,0.5,2.4&#xd;&#xa;&#x9;&#x9;c0,0.9-0.2,1.7-0.5,2.4c-0.4,0.7-0.8,1.2-1.5,1.6C86.4,221.7,85.7,221.9,84.8,221.9z M84.8,220.3c0.8,0,1.5-0.3,1.9-0.8&#xd;&#xa;&#x9;&#x9;c0.4-0.6,0.6-1.3,0.6-2.2c0-0.9-0.2-1.6-0.6-2.2c-0.4-0.5-1-0.8-1.9-0.8c-0.6,0-1,0.1-1.4,0.4c-0.4,0.3-0.6,0.6-0.8,1.1&#xd;&#xa;&#x9;&#x9;c-0.2,0.4-0.3,1-0.3,1.6c0,0.9,0.2,1.6,0.6,2.2C83.4,220.1,84,220.3,84.8,220.3z" class="st2"/>
  <path d="M90.8,225.5V213h1.5v6.2h0.2v6.3H90.8z M94.9,221.9c-0.8,0-1.5-0.2-2.1-0.6c-0.6-0.4-1-1-1.3-1.6&#xd;&#xa;&#x9;&#x9;c-0.3-0.7-0.4-1.5-0.4-2.3c0-0.9,0.1-1.6,0.4-2.3c0.3-0.7,0.7-1.2,1.3-1.6c0.6-0.4,1.3-0.6,2.1-0.6c0.8,0,1.5,0.2,2.1,0.6&#xd;&#xa;&#x9;&#x9;c0.6,0.4,1,0.9,1.4,1.6c0.3,0.7,0.5,1.5,0.5,2.3c0,0.9-0.2,1.6-0.5,2.3c-0.3,0.7-0.8,1.2-1.4,1.6C96.4,221.7,95.7,221.9,94.9,221.9&#xd;&#xa;&#x9;&#x9;z M94.7,220.4c0.5,0,1-0.1,1.3-0.4c0.4-0.3,0.6-0.6,0.8-1.1c0.2-0.5,0.3-1,0.3-1.6c0-0.6-0.1-1.1-0.3-1.5c-0.2-0.5-0.4-0.8-0.8-1.1&#xd;&#xa;&#x9;&#x9;c-0.4-0.3-0.8-0.4-1.4-0.4c-0.5,0-1,0.1-1.3,0.4c-0.3,0.3-0.6,0.6-0.8,1.1c-0.2,0.5-0.2,1-0.2,1.6c0,0.6,0.1,1.1,0.2,1.6&#xd;&#xa;&#x9;&#x9;c0.2,0.5,0.4,0.8,0.8,1.1C93.7,220.3,94.1,220.4,94.7,220.4z" class="st2"/>
 </g>
 <g>
  <path d="M31.8,197.8v-3.5c0.4,0,0.7-0.1,1-0.3c0.3-0.2,0.5-0.5,0.6-0.8c0.2-0.4,0.3-0.8,0.4-1.2&#xd;&#xa;&#x9;&#x9;c0.1-0.5,0.1-0.9,0.2-1.4c0.1-0.7,0.1-1.3,0.2-2c0-0.6,0.1-1.3,0.1-2c0-0.7,0.1-1.4,0.1-2.3l7.4,0v10h0.9v3.5H41v-1.9h-7.5v1.9&#xd;&#xa;&#x9;&#x9;H31.8z M34.6,194.3h5.5v-8.4l-4.2,0c0,0.6-0.1,1.1-0.1,1.7c0,0.5-0.1,1.1-0.1,1.6c0,0.5-0.1,1.1-0.1,1.7c-0.1,0.6-0.1,1.1-0.2,1.5&#xd;&#xa;&#x9;&#x9;c-0.1,0.4-0.2,0.8-0.3,1.1C35,193.8,34.8,194.1,34.6,194.3z" class="st2"/>
  <path d="M48.3,196.2c-0.9,0-1.6-0.2-2.3-0.6s-1.2-0.9-1.5-1.6c-0.4-0.7-0.5-1.5-0.5-2.4c0-0.9,0.2-1.8,0.5-2.5&#xd;&#xa;&#x9;&#x9;c0.4-0.7,0.9-1.2,1.5-1.6s1.4-0.6,2.2-0.6c0.9,0,1.6,0.2,2.3,0.6c0.6,0.4,1.1,1,1.4,1.7c0.3,0.8,0.4,1.7,0.4,2.7h-1.7v-0.6&#xd;&#xa;&#x9;&#x9;c0-1-0.2-1.8-0.6-2.2c-0.4-0.5-0.9-0.7-1.7-0.7c-0.8,0-1.5,0.3-1.9,0.8c-0.4,0.5-0.6,1.3-0.6,2.3c0,1,0.2,1.7,0.6,2.2&#xd;&#xa;&#x9;&#x9;c0.4,0.5,1,0.8,1.8,0.8c0.5,0,1-0.1,1.4-0.4c0.4-0.2,0.7-0.6,0.9-1l1.6,0.5c-0.3,0.8-0.8,1.4-1.5,1.8&#xd;&#xa;&#x9;&#x9;C49.9,195.9,49.1,196.2,48.3,196.2z M45.2,192v-1.3h6.2v1.3H45.2z" class="st2"/>
  <path d="M56.1,195.9v-7.2h-3v-1.5h7.6v1.5h-3v7.2H56.1z" class="st2"/>
  <path d="M65.8,196.2c-0.9,0-1.6-0.2-2.3-0.6c-0.6-0.4-1.1-0.9-1.4-1.6c-0.3-0.7-0.5-1.5-0.5-2.4c0-0.9,0.2-1.7,0.5-2.4&#xd;&#xa;&#x9;&#x9;c0.3-0.7,0.8-1.2,1.4-1.6c0.6-0.4,1.4-0.6,2.3-0.6c0.9,0,1.8,0.2,2.4,0.7c0.7,0.5,1.1,1.1,1.3,1.9l-1.7,0.5&#xd;&#xa;&#x9;&#x9;c-0.2-0.5-0.4-0.9-0.8-1.1c-0.4-0.3-0.8-0.4-1.3-0.4c-0.6,0-1,0.1-1.4,0.4s-0.6,0.6-0.8,1.1c-0.2,0.5-0.3,1-0.3,1.5&#xd;&#xa;&#x9;&#x9;c0,0.9,0.2,1.6,0.6,2.2c0.4,0.6,1,0.8,1.8,0.8c0.5,0,1-0.1,1.3-0.4c0.3-0.2,0.6-0.6,0.8-1.1l1.7,0.4c-0.3,0.8-0.8,1.5-1.4,2&#xd;&#xa;&#x9;&#x9;C67.5,195.9,66.7,196.2,65.8,196.2z" class="st2"/>
  <path d="M71.2,195.9l0-8.7h1.7v4.2l3.4-4.2h2.1l-3.6,4.3l4,4.3h-2.3l-3.6-4.2v4.2H71.2z" class="st2"/>
  <path d="M82.1,196.2c-0.6,0-1.2-0.1-1.6-0.4c-0.4-0.2-0.8-0.6-1-0.9c-0.2-0.4-0.3-0.8-0.3-1.3c0-0.4,0.1-0.8,0.2-1.2&#xd;&#xa;&#x9;&#x9;c0.2-0.3,0.4-0.6,0.7-0.8c0.3-0.2,0.7-0.4,1.1-0.6c0.4-0.1,0.8-0.2,1.3-0.3c0.5-0.1,1-0.2,1.5-0.2c0.5-0.1,1.1-0.2,1.6-0.2&#xd;&#xa;&#x9;&#x9;l-0.6,0.3c0-0.7-0.1-1.2-0.4-1.5c-0.3-0.3-0.8-0.5-1.5-0.5c-0.5,0-0.9,0.1-1.3,0.3c-0.4,0.2-0.6,0.6-0.8,1l-1.6-0.5&#xd;&#xa;&#x9;&#x9;c0.2-0.7,0.6-1.3,1.2-1.8c0.6-0.4,1.4-0.7,2.4-0.7c0.8,0,1.5,0.1,2,0.4c0.6,0.3,1,0.7,1.3,1.3c0.1,0.3,0.2,0.6,0.3,0.9&#xd;&#xa;&#x9;&#x9;c0,0.3,0,0.7,0,1v5.3h-1.5v-2l0.3,0.3c-0.4,0.7-0.8,1.2-1.4,1.5C83.6,196,82.9,196.2,82.1,196.2z M82.4,194.8&#xd;&#xa;&#x9;&#x9;c0.5,0,0.9-0.1,1.2-0.3c0.3-0.2,0.6-0.4,0.8-0.6c0.2-0.3,0.3-0.5,0.4-0.8c0.1-0.3,0.1-0.5,0.2-0.9c0-0.3,0-0.6,0-0.8l0.5,0.2&#xd;&#xa;&#x9;&#x9;c-0.5,0.1-1,0.2-1.4,0.2c-0.4,0.1-0.8,0.1-1.2,0.2c-0.4,0.1-0.7,0.1-0.9,0.2c-0.2,0.1-0.4,0.2-0.6,0.3c-0.2,0.1-0.3,0.2-0.4,0.4&#xd;&#xa;&#x9;&#x9;c-0.1,0.2-0.2,0.4-0.2,0.6c0,0.2,0.1,0.4,0.2,0.6c0.1,0.2,0.3,0.3,0.5,0.5C81.7,194.7,82,194.8,82.4,194.8z" class="st2"/>
  <path d="M88.3,195.9l2.2-3.4h1.8l-2.2,3.4H88.3z M94.1,195.9v-3h-1.7c-0.2,0-0.4,0-0.7,0c-0.3,0-0.5,0-0.8-0.1&#xd;&#xa;&#x9;&#x9;c-0.6-0.1-1.2-0.4-1.6-0.8c-0.4-0.4-0.7-1.1-0.7-1.9c0-0.8,0.2-1.4,0.6-1.8c0.4-0.5,0.9-0.8,1.6-0.9c0.3-0.1,0.6-0.1,0.8-0.1&#xd;&#xa;&#x9;&#x9;c0.3,0,0.5,0,0.7,0h3.4l0,8.7H94.1z M92.2,191.6h1.9v-3h-1.9c-0.1,0-0.3,0-0.4,0c-0.2,0-0.3,0-0.5,0.1c-0.2,0-0.3,0.1-0.5,0.3&#xd;&#xa;&#x9;&#x9;c-0.2,0.1-0.3,0.3-0.4,0.5c-0.1,0.2-0.1,0.4-0.1,0.7c0,0.4,0.1,0.7,0.3,0.9c0.2,0.2,0.5,0.4,0.7,0.5c0.2,0,0.3,0.1,0.5,0.1&#xd;&#xa;&#x9;&#x9;C92,191.5,92.1,191.6,92.2,191.6z" class="st2"/>
 </g>
 <g>
  <path d="M32.4,252.1v-11.6h7.4v1.6h-5.7v10H32.4z" class="st2"/>
  <path d="M42.4,252.4c-0.6,0-1.2-0.1-1.6-0.4c-0.4-0.2-0.8-0.6-1-0.9c-0.2-0.4-0.3-0.8-0.3-1.3c0-0.4,0.1-0.8,0.2-1.2&#xd;&#xa;&#x9;&#x9;c0.2-0.3,0.4-0.6,0.7-0.8c0.3-0.2,0.7-0.4,1.1-0.6c0.4-0.1,0.8-0.2,1.3-0.3c0.5-0.1,1-0.2,1.5-0.2c0.5-0.1,1.1-0.2,1.6-0.2&#xd;&#xa;&#x9;&#x9;l-0.6,0.3c0-0.7-0.1-1.2-0.4-1.5c-0.3-0.3-0.8-0.5-1.5-0.5c-0.5,0-0.9,0.1-1.3,0.3c-0.4,0.2-0.6,0.6-0.8,1l-1.6-0.5&#xd;&#xa;&#x9;&#x9;c0.2-0.7,0.6-1.3,1.2-1.8c0.6-0.4,1.4-0.7,2.4-0.7c0.8,0,1.5,0.1,2,0.4c0.6,0.3,1,0.7,1.3,1.3c0.1,0.3,0.2,0.6,0.3,0.9&#xd;&#xa;&#x9;&#x9;c0,0.3,0,0.7,0,1v5.3h-1.5v-2l0.3,0.3c-0.4,0.7-0.8,1.2-1.4,1.5C43.9,252.2,43.2,252.4,42.4,252.4z M42.7,251&#xd;&#xa;&#x9;&#x9;c0.5,0,0.9-0.1,1.2-0.3c0.3-0.2,0.6-0.4,0.8-0.6c0.2-0.3,0.3-0.5,0.4-0.8c0.1-0.3,0.1-0.5,0.2-0.9c0-0.3,0-0.6,0-0.8l0.5,0.2&#xd;&#xa;&#x9;&#x9;c-0.5,0.1-1,0.2-1.4,0.2c-0.4,0.1-0.8,0.1-1.2,0.2c-0.4,0.1-0.7,0.1-0.9,0.2c-0.2,0.1-0.4,0.2-0.6,0.3c-0.2,0.1-0.3,0.2-0.4,0.4&#xd;&#xa;&#x9;&#x9;c-0.1,0.2-0.2,0.4-0.2,0.6c0,0.2,0.1,0.4,0.2,0.6c0.1,0.2,0.3,0.3,0.5,0.5C42.1,250.9,42.4,251,42.7,251z" class="st2"/>
  <path d="M49.1,256v-12.5h1.5v6.2h0.2v6.3H49.1z M53.2,252.4c-0.8,0-1.5-0.2-2.1-0.6c-0.6-0.4-1-1-1.3-1.6&#xd;&#xa;&#x9;&#x9;c-0.3-0.7-0.4-1.5-0.4-2.3c0-0.9,0.1-1.6,0.4-2.3s0.7-1.2,1.3-1.6c0.6-0.4,1.3-0.6,2.1-0.6c0.8,0,1.5,0.2,2.1,0.6&#xd;&#xa;&#x9;&#x9;c0.6,0.4,1,0.9,1.4,1.6c0.3,0.7,0.5,1.5,0.5,2.3c0,0.9-0.2,1.6-0.5,2.3c-0.3,0.7-0.8,1.2-1.4,1.6C54.7,252.2,54,252.4,53.2,252.4z&#xd;&#xa;&#x9;&#x9; M53,250.8c0.5,0,1-0.1,1.3-0.4c0.4-0.3,0.6-0.6,0.8-1.1c0.2-0.5,0.3-1,0.3-1.6c0-0.6-0.1-1.1-0.3-1.5c-0.2-0.5-0.4-0.8-0.8-1.1&#xd;&#xa;&#x9;&#x9;c-0.4-0.3-0.8-0.4-1.4-0.4c-0.5,0-1,0.1-1.3,0.4c-0.3,0.3-0.6,0.6-0.8,1.1s-0.2,1-0.2,1.6c0,0.6,0.1,1.1,0.2,1.6&#xd;&#xa;&#x9;&#x9;c0.2,0.5,0.4,0.8,0.8,1.1S52.4,250.8,53,250.8z" class="st2"/>
  <path d="M58.3,254v-3.3c0.5,0,0.8-0.2,1-0.5c0.2-0.3,0.4-0.9,0.5-1.6c0.1-0.5,0.1-1,0.2-1.5c0.1-0.5,0.1-1.1,0.1-1.7&#xd;&#xa;&#x9;&#x9;c0-0.6,0.1-1.3,0.1-2h6.2v7.3h0.9v3.3h-1.6v-1.9h-5.8v1.9H58.3z M60.7,250.8h4.1v-6h-3c0,0.4,0,0.7-0.1,1.1c0,0.4-0.1,0.7-0.1,1.1&#xd;&#xa;&#x9;&#x9;c0,0.4-0.1,0.7-0.1,1.1c0,0.3-0.1,0.6-0.1,0.9c-0.1,0.4-0.1,0.8-0.2,1.1S60.9,250.6,60.7,250.8z" class="st2"/>
  <path d="M72.8,252.4c-0.9,0-1.6-0.2-2.3-0.6c-0.7-0.4-1.2-0.9-1.5-1.6c-0.4-0.7-0.5-1.5-0.5-2.4c0-0.9,0.2-1.8,0.5-2.5&#xd;&#xa;&#x9;&#x9;c0.4-0.7,0.9-1.2,1.5-1.6c0.6-0.4,1.4-0.6,2.2-0.6c0.9,0,1.6,0.2,2.3,0.6c0.6,0.4,1.1,1,1.4,1.7s0.4,1.7,0.4,2.7H75v-0.6&#xd;&#xa;&#x9;&#x9;c0-1-0.2-1.8-0.6-2.2c-0.4-0.5-0.9-0.7-1.7-0.7c-0.8,0-1.5,0.3-1.9,0.8c-0.4,0.5-0.6,1.3-0.6,2.3c0,1,0.2,1.7,0.6,2.2&#xd;&#xa;&#x9;&#x9;c0.4,0.5,1,0.8,1.8,0.8c0.5,0,1-0.1,1.4-0.4c0.4-0.2,0.7-0.6,0.9-1l1.6,0.5c-0.3,0.8-0.8,1.4-1.5,1.8&#xd;&#xa;&#x9;&#x9;C74.4,252.1,73.6,252.4,72.8,252.4z M69.7,248.2v-1.3h6.2v1.3H69.7z" class="st2"/>
  <path d="M78.5,256v-12.5H80v6.2h0.2v6.3H78.5z M82.6,252.4c-0.8,0-1.5-0.2-2.1-0.6c-0.6-0.4-1-1-1.3-1.6&#xd;&#xa;&#x9;&#x9;c-0.3-0.7-0.4-1.5-0.4-2.3c0-0.9,0.1-1.6,0.4-2.3c0.3-0.7,0.7-1.2,1.3-1.6c0.6-0.4,1.3-0.6,2.1-0.6c0.8,0,1.5,0.2,2.1,0.6&#xd;&#xa;&#x9;&#x9;c0.6,0.4,1,0.9,1.4,1.6c0.3,0.7,0.5,1.5,0.5,2.3c0,0.9-0.2,1.6-0.5,2.3c-0.3,0.7-0.8,1.2-1.4,1.6C84.1,252.2,83.4,252.4,82.6,252.4&#xd;&#xa;&#x9;&#x9;z M82.3,250.8c0.5,0,1-0.1,1.3-0.4c0.4-0.3,0.6-0.6,0.8-1.1c0.2-0.5,0.3-1,0.3-1.6c0-0.6-0.1-1.1-0.3-1.5c-0.2-0.5-0.4-0.8-0.8-1.1&#xd;&#xa;&#x9;&#x9;c-0.4-0.3-0.8-0.4-1.4-0.4c-0.5,0-1,0.1-1.3,0.4c-0.3,0.3-0.6,0.6-0.8,1.1c-0.2,0.5-0.2,1-0.2,1.6c0,0.6,0.1,1.1,0.2,1.6&#xd;&#xa;&#x9;&#x9;c0.2,0.5,0.4,0.8,0.8,1.1C81.3,250.7,81.8,250.8,82.3,250.8z" class="st2"/>
  <path d="M92,252.4c-0.9,0-1.6-0.2-2.3-0.6c-0.6-0.4-1.1-0.9-1.5-1.6c-0.3-0.7-0.5-1.5-0.5-2.4c0-0.9,0.2-1.7,0.5-2.4&#xd;&#xa;&#x9;&#x9;c0.4-0.7,0.8-1.2,1.5-1.6c0.6-0.4,1.4-0.6,2.2-0.6c0.9,0,1.6,0.2,2.3,0.6c0.6,0.4,1.1,0.9,1.5,1.6c0.3,0.7,0.5,1.5,0.5,2.4&#xd;&#xa;&#x9;&#x9;c0,0.9-0.2,1.7-0.5,2.4c-0.4,0.7-0.8,1.2-1.5,1.6C93.7,252.2,92.9,252.4,92,252.4z M92,250.8c0.8,0,1.5-0.3,1.9-0.8&#xd;&#xa;&#x9;&#x9;c0.4-0.6,0.6-1.3,0.6-2.2c0-0.9-0.2-1.6-0.6-2.2c-0.4-0.5-1-0.8-1.9-0.8c-0.6,0-1,0.1-1.4,0.4c-0.4,0.3-0.6,0.6-0.8,1.1&#xd;&#xa;&#x9;&#x9;c-0.2,0.4-0.3,1-0.3,1.6c0,0.9,0.2,1.6,0.6,2.2C90.6,250.5,91.2,250.8,92,250.8z" class="st2"/>
  <path d="M101.6,252.4c-0.8,0-1.5-0.2-2.1-0.5c-0.6-0.4-1-0.9-1.4-1.5c-0.3-0.7-0.5-1.5-0.6-2.4c0-0.5,0-1,0-1.5&#xd;&#xa;&#x9;&#x9;c0-0.6,0.1-1.1,0.2-1.6c0.1-0.5,0.2-1,0.3-1.3c0.2-0.4,0.4-0.7,0.6-1.1c0.3-0.3,0.6-0.6,0.9-0.8c0.3-0.2,0.7-0.4,1.1-0.6&#xd;&#xa;&#x9;&#x9;c0.4-0.1,0.9-0.2,1.3-0.3c0.5-0.1,0.9-0.1,1.4-0.2c0.5-0.1,0.9-0.1,1.4-0.2l0.2,1.5c-0.3,0.1-0.6,0.1-1,0.2c-0.4,0-0.8,0.1-1.2,0.1&#xd;&#xa;&#x9;&#x9;c-0.4,0.1-0.8,0.1-1.2,0.2c-0.4,0.1-0.7,0.2-1,0.4c-0.4,0.2-0.7,0.6-0.9,1.1c-0.2,0.5-0.3,1-0.4,1.5c0.3-0.5,0.8-0.9,1.3-1.1&#xd;&#xa;&#x9;&#x9;c0.5-0.2,1-0.3,1.6-0.3c0.8,0,1.4,0.2,2,0.5c0.6,0.4,1,0.9,1.3,1.5c0.3,0.6,0.5,1.3,0.5,2.1c0,0.9-0.2,1.6-0.5,2.2&#xd;&#xa;&#x9;&#x9;c-0.4,0.6-0.8,1.1-1.5,1.5C103.2,252.2,102.5,252.4,101.6,252.4z M101.7,250.8c0.8,0,1.4-0.2,1.7-0.7s0.6-1.1,0.6-1.9&#xd;&#xa;&#x9;&#x9;c0-0.8-0.2-1.5-0.6-1.9c-0.4-0.5-1-0.7-1.7-0.7c-0.8,0-1.3,0.2-1.7,0.7c-0.4,0.5-0.6,1.1-0.6,1.9c0,0.8,0.2,1.5,0.6,1.9&#xd;&#xa;&#x9;&#x9;C100.4,250.5,101,250.8,101.7,250.8z" class="st2"/>
 </g>
 <g>
  <path d="M37.2,38c-1.2,0-2.1-0.3-3-0.8c-0.8-0.5-1.4-1.2-1.9-2.1c-0.4-0.9-0.6-2-0.6-3.2s0.2-2.2,0.6-3.2&#xd;&#xa;&#x9;&#x9;c0.4-0.9,1.1-1.6,1.9-2.1c0.8-0.5,1.8-0.8,3-0.8c1.3,0,2.4,0.3,3.3,1c0.9,0.7,1.5,1.6,1.8,2.7l-1.7,0.5c-0.2-0.8-0.6-1.4-1.2-1.9&#xd;&#xa;&#x9;&#x9;c-0.6-0.5-1.3-0.7-2.2-0.7c-0.8,0-1.5,0.2-2.1,0.6c-0.5,0.4-1,0.9-1.2,1.6c-0.3,0.7-0.4,1.4-0.4,2.3c0,0.9,0.1,1.7,0.4,2.3&#xd;&#xa;&#x9;&#x9;c0.3,0.7,0.7,1.2,1.2,1.6c0.5,0.4,1.2,0.6,2.1,0.6c0.9,0,1.7-0.2,2.2-0.7c0.6-0.5,1-1.1,1.2-1.9l1.7,0.5c-0.3,1.1-1,2.1-1.8,2.7&#xd;&#xa;&#x9;&#x9;C39.7,37.7,38.6,38,37.2,38z" class="st2"/>
  <path d="M45.3,37.8l1.5-3l-4-8.6h1.9l3,6.8l3.1-6.8h1.8l-5.4,11.6H45.3z" class="st2"/>
  <path d="M61.2,38c-1.2,0-2.1-0.3-3-0.8c-0.8-0.5-1.4-1.2-1.9-2.1c-0.4-0.9-0.6-2-0.6-3.2s0.2-2.2,0.6-3.2&#xd;&#xa;&#x9;&#x9;c0.4-0.9,1.1-1.6,1.9-2.1c0.8-0.5,1.8-0.8,3-0.8c1.3,0,2.4,0.3,3.3,1c0.9,0.7,1.5,1.6,1.8,2.7l-1.7,0.5c-0.2-0.8-0.6-1.4-1.2-1.9&#xd;&#xa;&#x9;&#x9;c-0.6-0.5-1.3-0.7-2.2-0.7c-0.8,0-1.5,0.2-2.1,0.6c-0.5,0.4-1,0.9-1.2,1.6c-0.3,0.7-0.4,1.4-0.4,2.3c0,0.9,0.1,1.7,0.4,2.3&#xd;&#xa;&#x9;&#x9;c0.3,0.7,0.7,1.2,1.2,1.6c0.5,0.4,1.2,0.6,2.1,0.6c0.9,0,1.7-0.2,2.2-0.7c0.6-0.5,1-1.1,1.2-1.9l1.7,0.5c-0.3,1.1-1,2.1-1.8,2.7&#xd;&#xa;&#x9;&#x9;C63.7,37.7,62.6,38,61.2,38z" class="st2"/>
  <path d="M68.2,37.8v-8.7h7.3v8.7h-1.7v-7.1h-4v7.1H68.2z" class="st2"/>
  <path d="M80.2,38c-0.6,0-1.2-0.1-1.6-0.4c-0.4-0.2-0.8-0.6-1-0.9c-0.2-0.4-0.3-0.8-0.3-1.3c0-0.4,0.1-0.8,0.2-1.2&#xd;&#xa;&#x9;&#x9;c0.2-0.3,0.4-0.6,0.7-0.8c0.3-0.2,0.7-0.4,1.1-0.6c0.4-0.1,0.8-0.2,1.3-0.3c0.5-0.1,1-0.2,1.5-0.2c0.5-0.1,1.1-0.2,1.6-0.2&#xd;&#xa;&#x9;&#x9;l-0.6,0.3c0-0.7-0.1-1.2-0.4-1.5c-0.3-0.3-0.8-0.5-1.5-0.5c-0.5,0-0.9,0.1-1.3,0.3c-0.4,0.2-0.6,0.6-0.8,1l-1.6-0.5&#xd;&#xa;&#x9;&#x9;c0.2-0.7,0.6-1.3,1.2-1.8c0.6-0.4,1.4-0.7,2.4-0.7c0.8,0,1.5,0.1,2,0.4c0.6,0.3,1,0.7,1.3,1.3c0.1,0.3,0.2,0.6,0.3,0.9&#xd;&#xa;&#x9;&#x9;c0,0.3,0,0.7,0,1v5.3h-1.5v-2l0.3,0.3c-0.4,0.7-0.8,1.2-1.4,1.5C81.7,37.9,81,38,80.2,38z M80.5,36.7c0.5,0,0.9-0.1,1.2-0.3&#xd;&#xa;&#x9;&#x9;c0.3-0.2,0.6-0.4,0.8-0.6c0.2-0.3,0.3-0.5,0.4-0.8c0.1-0.3,0.1-0.5,0.2-0.9c0-0.3,0-0.6,0-0.8l0.5,0.2c-0.5,0.1-1,0.2-1.4,0.2&#xd;&#xa;&#x9;&#x9;c-0.4,0.1-0.8,0.1-1.2,0.2c-0.4,0.1-0.7,0.1-0.9,0.2c-0.2,0.1-0.4,0.2-0.6,0.3c-0.2,0.1-0.3,0.2-0.4,0.4c-0.1,0.2-0.2,0.4-0.2,0.6&#xd;&#xa;&#x9;&#x9;c0,0.2,0.1,0.4,0.2,0.6c0.1,0.2,0.3,0.3,0.5,0.5C79.8,36.6,80.1,36.7,80.5,36.7z" class="st2"/>
  <path d="M86.1,37.8v-1.4c0.3,0.1,0.6,0,0.7,0c0.2-0.1,0.3-0.2,0.4-0.4c0.1-0.2,0.2-0.5,0.2-0.8c0.1-0.5,0.2-1,0.2-1.7&#xd;&#xa;&#x9;&#x9;c0.1-0.6,0.1-1.3,0.2-2c0.1-0.7,0.1-1.5,0.1-2.3h6.2v8.7h-1.7v-7.1h-3c0,0.4-0.1,0.9-0.1,1.3c0,0.5-0.1,0.9-0.1,1.4&#xd;&#xa;&#x9;&#x9;c0,0.5-0.1,0.9-0.2,1.3c-0.1,0.4-0.1,0.8-0.2,1c-0.1,0.6-0.3,1-0.5,1.4c-0.2,0.3-0.5,0.6-0.9,0.7C87.2,37.9,86.7,37.9,86.1,37.8z" class="st2"/>
  <path d="M96.5,37.8v-8.7h1.7v3h1.7c0.2,0,0.5,0,0.8,0c0.3,0,0.5,0,0.7,0.1c0.5,0.1,0.9,0.3,1.2,0.5&#xd;&#xa;&#x9;&#x9;c0.3,0.2,0.6,0.5,0.8,0.9c0.2,0.4,0.3,0.8,0.3,1.4c0,0.8-0.2,1.4-0.6,1.8c-0.4,0.4-0.9,0.7-1.6,0.9c-0.2,0-0.5,0.1-0.8,0.1&#xd;&#xa;&#x9;&#x9;c-0.3,0-0.6,0-0.8,0H96.5z M98.2,36.4h1.9c0.1,0,0.3,0,0.5,0c0.2,0,0.3,0,0.5-0.1c0.3-0.1,0.5-0.2,0.7-0.5c0.2-0.2,0.3-0.5,0.3-0.9&#xd;&#xa;&#x9;&#x9;c0-0.4-0.1-0.7-0.3-0.9s-0.5-0.4-0.8-0.5c-0.1,0-0.3-0.1-0.4-0.1c-0.2,0-0.3,0-0.4,0h-1.9V36.4z" class="st2"/>
  <path d="M105.2,37.8v-8.7h1.7v3.5h4.2v-3.5h1.7v8.7h-1.7v-3.6h-4.2v3.6H105.2z" class="st2"/>
  <path d="M114.6,37.8l2.2-3.4h1.8l-2.2,3.4H114.6z M120.3,37.8v-3h-1.7c-0.2,0-0.4,0-0.7,0c-0.3,0-0.5,0-0.8-0.1&#xd;&#xa;&#x9;&#x9;c-0.6-0.1-1.2-0.4-1.6-0.8c-0.4-0.4-0.7-1.1-0.7-1.9c0-0.8,0.2-1.4,0.6-1.8c0.4-0.5,0.9-0.8,1.6-0.9c0.3-0.1,0.6-0.1,0.8-0.1&#xd;&#xa;&#x9;&#x9;c0.3,0,0.5,0,0.7,0h3.4l0,8.7H120.3z M118.5,33.4h1.9v-3h-1.9c-0.1,0-0.3,0-0.4,0c-0.2,0-0.3,0-0.5,0.1c-0.2,0-0.3,0.1-0.5,0.3&#xd;&#xa;&#x9;&#x9;c-0.2,0.1-0.3,0.3-0.4,0.5c-0.1,0.2-0.1,0.4-0.1,0.7c0,0.4,0.1,0.7,0.3,0.9c0.2,0.2,0.5,0.4,0.7,0.5c0.2,0,0.3,0.1,0.5,0.1&#xd;&#xa;&#x9;&#x9;C118.2,33.4,118.3,33.4,118.5,33.4z" class="st2"/>
 </g>
</svg>
